# xmcd
#
# Track frame offsets:
#	150
#	18826
#	35966
#	52311
#	72517
#	86939
#	102239
#	116148
#	134199
#	151145
#	168369
#	189183
#	202011
#	221038
#	236905
#	252587
#	271633
#	289602
#	309819
#	322151
#	338035
#
# Disc length: 4743 seconds
#
# Revision: 1
# Processed by: cddbd v1.5.2PL0 Copyright (c) Steve Scherf et al.
# Submitted via: EZCDAudioConverter 4.0.5.1
#
DISCID=49128515
DTITLE=Vários - Explosão Sertaneja 008
DYEAR=2004
DGENRE=Sertanejo
TTITLE0=Chitãozinho and Xororó - Encontro Casual
TTITLE1=Chitãozinho and Xororó Feat. Billy Ray Cirus - Ela Não Vai Mais Voltar (
TTITLE1=She's No Cry Anymore)
TTITLE2=Cezar and Paulinho Feat. Daniel - Noís É Caubói
TTITLE3=Daniel - Só Seu Amor Não Vai Embora
TTITLE4=Edson and Hudson - Louca Paixão (Ao Vivo)
TTITLE5=Edson and Hudson - Deixa Eu Te Amar (Ao Vivo)
TTITLE6=Edson and Hudson - Zoião
TTITLE7=Gian and Giovani - Tatuagem
TTITLE8=Gian and Giovani - Pra Conhecer Uma Mulher
TTITLE9=Gian and Giovani - Dois Corações
TTITLE10=Guilherme and Santiago - Nosso Amor
TTITLE11=Henrique and Ernani - Carminha
TTITLE12=Leandro and Leonardo - Dor de Amor Não Tem Jeito
TTITLE13=Leandro and Leonardo - Paz Na Cama
TTITLE14=Leandro and Leonardo - Mulher Brasileira
TTITLE15=Marlon and Maicon - Te Peço Fica Comigo
TTITLE16=Matogrosso and Mathias - Tentei Te Esquecer
TTITLE17=Rick and Renner - O Amor E Eu
TTITLE18=Rionegro and Solimões - Rodopiou
TTITLE19=Rionegro and Solimões - Amor Desencontrado
TTITLE20=Tony Francis - Madrugada
EXTD=
EXTT0=
EXTT1=
EXTT2=
EXTT3=
EXTT4=
EXTT5=
EXTT6=
EXTT7=
EXTT8=
EXTT9=
EXTT10=
EXTT11=
EXTT12=
EXTT13=
EXTT14=
EXTT15=
EXTT16=
EXTT17=
EXTT18=
EXTT19=
EXTT20=
PLAYORDER=
